<svg id="Layer_1" data-name="Layer 1" xmlns="http://www.w3.org/2000/svg" viewBox="0 0 476.9 143.74"><defs><style>.cls-1{fill:none;}.cls-1,.cls-2,.cls-4{stroke:#000;}.cls-1,.cls-2,.cls-3,.cls-4{stroke-miterlimit:10;}.cls-1,.cls-2{stroke-width:8px;}.cls-3{fill:#fff;stroke:#fff;}.cls-3,.cls-4{stroke-width:2px;}</style></defs><title>Artboard 1</title><path class="cls-1" d="M132.8,71.46a60.73,60.73,0,1,0-121.46,0c0,.16,0,.33,0,.49H132.79C132.79,71.79,132.8,71.62,132.8,71.46Z"/><path class="cls-2" d="M11.15,72.56a60.73,60.73,0,0,0,121.45,0Z"/><path d="M222.65,45.44l-13.84,56.48H194.89L184.33,61l-10.64,41H159.85L146,45.44h12.24l8.64,43.76,11.2-43.76h12.4L201.77,89.2l8.64-43.76Z"/><path d="M252,59.17a14.4,14.4,0,0,1,5.68,7.12v-9.2h11.2v44.32h-11.2V92.13A14.67,14.67,0,0,1,252,99.29a16.91,16.91,0,0,1-9.6,2.68,19,19,0,0,1-10.08-2.72,18.39,18.39,0,0,1-7-7.88,27.33,27.33,0,0,1-2.52-12.12,27.33,27.33,0,0,1,2.52-12.12,18.34,18.34,0,0,1,7-7.88,18.94,18.94,0,0,1,10.08-2.72A17,17,0,0,1,252,59.17ZM237.41,69.81q-3.21,3.43-3.2,9.44t3.2,9.4a12.12,12.12,0,0,0,16.92-.08,13,13,0,0,0,3.32-9.32q0-5.93-3.32-9.4a11.18,11.18,0,0,0-8.44-3.48A11,11,0,0,0,237.41,69.81Z"/><path d="M301.25,91.73v9.68h-5.92q-7.44,0-11.4-3.6t-4-12V66.61h-6.16V57.09H280v-11h11.28v11h9.92v9.52h-9.92V86c0,2.13.42,3.62,1.28,4.48s2.29,1.28,4.32,1.28Z"/><path d="M342,61.17a20.26,20.26,0,0,1,7.16,12.64H337.25A9.22,9.22,0,0,0,334,68.25a10.09,10.09,0,0,0-6.48-2A9.64,9.64,0,0,0,320,69.53q-3,3.31-3,9.72T320,89a9.67,9.67,0,0,0,7.48,3.32,10.09,10.09,0,0,0,6.48-2,9.25,9.25,0,0,0,3.28-5.56h11.92A20.31,20.31,0,0,1,342,97.33Q336.28,102,327.73,102a23.59,23.59,0,0,1-11.52-2.76,19.38,19.38,0,0,1-7.84-7.88,24.78,24.78,0,0,1-2.8-12.08,25,25,0,0,1,2.8-12.12,19,19,0,0,1,7.84-7.88,23.8,23.8,0,0,1,11.52-2.72Q336.28,56.53,342,61.17Z"/><path d="M394.28,61.49q4.56,5,4.57,14.16v25.76h-11.2V76.93c0-3.52-.91-6.26-2.72-8.2a9.68,9.68,0,0,0-7.44-2.92,9.93,9.93,0,0,0-7.68,3.12c-1.92,2.08-2.88,5.06-2.88,9v23.52H355.65V42.21h11.28V66a14.06,14.06,0,0,1,5.8-7A17.22,17.22,0,0,1,382,56.45Q389.72,56.45,394.28,61.49Z"/><path d="M418.53,44.93v56.48H407.24V44.93Z"/><path d="M465.64,44.93v9H450v47.52H438.76V53.89H423.24v-9Z"/><rect class="cls-3" x="57.19" y="93.77" width="44.9" height="4.45" rx="2.23" transform="translate(142.62 -11.68) rotate(70)"/><rect class="cls-4" x="63.19" y="52.97" width="44.9" height="4.45" rx="2.23" transform="translate(-15.2 69.73) rotate(-41)"/></svg>